<mxfile host="65bd71144e">
    <diagram id="Vt1UbwbgN0udEM10BXnU" name="第 1 页">
        <mxGraphModel dx="1220" dy="1165" grid="1" gridSize="10" guides="1" tooltips="1" connect="1" arrows="1" fold="1" page="1" pageScale="1" pageWidth="827" pageHeight="1169" math="0" shadow="0">
            <root>
                <mxCell id="0"/>
                <mxCell id="1" parent="0"/>
                <mxCell id="130" value="&lt;font style=&quot;font-size: 19px;&quot; face=&quot;Times New Roman&quot;&gt;(a)&lt;/font&gt;" style="rounded=0;whiteSpace=wrap;html=1;container=1;verticalAlign=bottom;strokeColor=none;fillColor=none;" vertex="1" parent="1">
                    <mxGeometry x="40" y="40" width="320" height="220" as="geometry">
                        <mxRectangle x="177" y="190" width="50" height="40" as="alternateBounds"/>
                    </mxGeometry>
                </mxCell>
                <mxCell id="17" value="" style="group" vertex="1" connectable="0" parent="130">
                    <mxGeometry x="35" width="250" height="190" as="geometry"/>
                </mxCell>
                <mxCell id="4" value="2" style="ellipse;whiteSpace=wrap;html=1;fontFamily=Times New Roman;fontSize=19;" vertex="1" parent="17">
                    <mxGeometry x="120" width="40" height="40" as="geometry"/>
                </mxCell>
                <mxCell id="7" value="3" style="ellipse;whiteSpace=wrap;html=1;fontFamily=Times New Roman;fontSize=19;" vertex="1" parent="17">
                    <mxGeometry x="60" y="50" width="40" height="40" as="geometry"/>
                </mxCell>
                <mxCell id="2" style="edgeStyle=none;html=1;fontFamily=Times New Roman;fontSize=19;endArrow=none;endFill=0;" edge="1" parent="17" source="4" target="7">
                    <mxGeometry relative="1" as="geometry"/>
                </mxCell>
                <mxCell id="10" value="4" style="ellipse;whiteSpace=wrap;html=1;fontFamily=Times New Roman;fontSize=19;" vertex="1" parent="17">
                    <mxGeometry x="180" y="50" width="40" height="40" as="geometry"/>
                </mxCell>
                <mxCell id="3" style="edgeStyle=none;html=1;fontFamily=Times New Roman;fontSize=19;endArrow=none;endFill=0;" edge="1" parent="17" source="4" target="10">
                    <mxGeometry relative="1" as="geometry"/>
                </mxCell>
                <mxCell id="11" value="5" style="ellipse;whiteSpace=wrap;html=1;fontFamily=Times New Roman;fontSize=19;" vertex="1" parent="17">
                    <mxGeometry x="30" y="100" width="40" height="40" as="geometry"/>
                </mxCell>
                <mxCell id="5" style="edgeStyle=none;html=1;fontFamily=Times New Roman;fontSize=19;endArrow=none;endFill=0;" edge="1" parent="17" source="7" target="11">
                    <mxGeometry relative="1" as="geometry"/>
                </mxCell>
                <mxCell id="12" value="7" style="ellipse;whiteSpace=wrap;html=1;fontFamily=Times New Roman;fontSize=19;" vertex="1" parent="17">
                    <mxGeometry x="90" y="100" width="40" height="40" as="geometry"/>
                </mxCell>
                <mxCell id="6" style="edgeStyle=none;html=1;fontFamily=Times New Roman;fontSize=19;endArrow=none;endFill=0;" edge="1" parent="17" source="7" target="12">
                    <mxGeometry relative="1" as="geometry"/>
                </mxCell>
                <mxCell id="13" value="8" style="ellipse;whiteSpace=wrap;html=1;fontFamily=Times New Roman;fontSize=19;" vertex="1" parent="17">
                    <mxGeometry x="150" y="100" width="40" height="40" as="geometry"/>
                </mxCell>
                <mxCell id="8" style="edgeStyle=none;html=1;fontFamily=Times New Roman;fontSize=19;endArrow=none;endFill=0;" edge="1" parent="17" source="10" target="13">
                    <mxGeometry relative="1" as="geometry"/>
                </mxCell>
                <mxCell id="14" value="9" style="ellipse;whiteSpace=wrap;html=1;fontFamily=Times New Roman;fontSize=19;" vertex="1" parent="17">
                    <mxGeometry x="210" y="100" width="40" height="40" as="geometry"/>
                </mxCell>
                <mxCell id="9" style="edgeStyle=none;html=1;fontFamily=Times New Roman;fontSize=19;endArrow=none;endFill=0;" edge="1" parent="17" source="10" target="14">
                    <mxGeometry relative="1" as="geometry"/>
                </mxCell>
                <mxCell id="15" style="edgeStyle=none;html=1;fontFamily=Times New Roman;fontSize=19;endArrow=none;endFill=0;" edge="1" parent="17" source="11" target="16">
                    <mxGeometry relative="1" as="geometry">
                        <mxPoint x="39.84029960111843" y="139.99731806766874" as="sourcePoint"/>
                    </mxGeometry>
                </mxCell>
                <mxCell id="16" value="6" style="ellipse;whiteSpace=wrap;html=1;fontFamily=Times New Roman;fontSize=19;" vertex="1" parent="17">
                    <mxGeometry y="150" width="40" height="40" as="geometry"/>
                </mxCell>
                <mxCell id="132" value="&lt;font style=&quot;font-size: 19px;&quot; face=&quot;Times New Roman&quot;&gt;(c)&lt;/font&gt;" style="rounded=0;whiteSpace=wrap;html=1;container=1;verticalAlign=bottom;strokeColor=none;fillColor=none;" vertex="1" parent="1">
                    <mxGeometry x="680" y="40" width="320" height="220" as="geometry">
                        <mxRectangle x="177" y="190" width="50" height="40" as="alternateBounds"/>
                    </mxGeometry>
                </mxCell>
                <mxCell id="55" value="" style="group" vertex="1" connectable="0" parent="132">
                    <mxGeometry x="10" width="300" height="190" as="geometry"/>
                </mxCell>
                <mxCell id="39" value="2" style="ellipse;whiteSpace=wrap;html=1;fontFamily=Times New Roman;fontSize=19;" vertex="1" parent="55">
                    <mxGeometry x="120" width="40" height="40" as="geometry"/>
                </mxCell>
                <mxCell id="42" value="3" style="ellipse;whiteSpace=wrap;html=1;fontFamily=Times New Roman;fontSize=19;" vertex="1" parent="55">
                    <mxGeometry x="60" y="50" width="40" height="40" as="geometry"/>
                </mxCell>
                <mxCell id="37" style="edgeStyle=none;html=1;fontFamily=Times New Roman;fontSize=19;endArrow=none;endFill=0;" edge="1" parent="55" source="39" target="42">
                    <mxGeometry relative="1" as="geometry"/>
                </mxCell>
                <mxCell id="45" value="4" style="ellipse;whiteSpace=wrap;html=1;fontFamily=Times New Roman;fontSize=19;" vertex="1" parent="55">
                    <mxGeometry x="180" y="50" width="40" height="40" as="geometry"/>
                </mxCell>
                <mxCell id="38" style="edgeStyle=none;html=1;fontFamily=Times New Roman;fontSize=19;endArrow=none;endFill=0;" edge="1" parent="55" source="39" target="45">
                    <mxGeometry relative="1" as="geometry"/>
                </mxCell>
                <mxCell id="47" value="" style="ellipse;whiteSpace=wrap;html=1;fontFamily=Times New Roman;fontSize=19;strokeWidth=4;" vertex="1" parent="55">
                    <mxGeometry x="30" y="100" width="40" height="40" as="geometry"/>
                </mxCell>
                <mxCell id="40" style="edgeStyle=none;html=1;fontFamily=Times New Roman;fontSize=19;endArrow=none;endFill=0;" edge="1" parent="55" source="42" target="47">
                    <mxGeometry relative="1" as="geometry"/>
                </mxCell>
                <mxCell id="48" value="7" style="ellipse;whiteSpace=wrap;html=1;fontFamily=Times New Roman;fontSize=19;" vertex="1" parent="55">
                    <mxGeometry x="90" y="100" width="40" height="40" as="geometry"/>
                </mxCell>
                <mxCell id="41" style="edgeStyle=none;html=1;fontFamily=Times New Roman;fontSize=19;endArrow=none;endFill=0;" edge="1" parent="55" source="42" target="48">
                    <mxGeometry relative="1" as="geometry"/>
                </mxCell>
                <mxCell id="49" value="8" style="ellipse;whiteSpace=wrap;html=1;fontFamily=Times New Roman;fontSize=19;" vertex="1" parent="55">
                    <mxGeometry x="150" y="100" width="40" height="40" as="geometry"/>
                </mxCell>
                <mxCell id="43" style="edgeStyle=none;html=1;fontFamily=Times New Roman;fontSize=19;endArrow=none;endFill=0;" edge="1" parent="55" source="45" target="49">
                    <mxGeometry relative="1" as="geometry"/>
                </mxCell>
                <mxCell id="50" value="9" style="ellipse;whiteSpace=wrap;html=1;fontFamily=Times New Roman;fontSize=19;" vertex="1" parent="55">
                    <mxGeometry x="210" y="100" width="40" height="40" as="geometry"/>
                </mxCell>
                <mxCell id="44" style="edgeStyle=none;html=1;fontFamily=Times New Roman;fontSize=19;endArrow=none;endFill=0;" edge="1" parent="55" source="45" target="50">
                    <mxGeometry relative="1" as="geometry"/>
                </mxCell>
                <mxCell id="51" style="edgeStyle=none;html=1;fontFamily=Times New Roman;fontSize=19;endArrow=none;endFill=0;" edge="1" parent="55" source="47" target="52">
                    <mxGeometry relative="1" as="geometry">
                        <mxPoint x="39.84029960111843" y="139.99731806766874" as="sourcePoint"/>
                    </mxGeometry>
                </mxCell>
                <mxCell id="52" value="6" style="ellipse;whiteSpace=wrap;html=1;fontFamily=Times New Roman;fontSize=19;" vertex="1" parent="55">
                    <mxGeometry y="150" width="40" height="40" as="geometry"/>
                </mxCell>
                <mxCell id="53" value="1" style="ellipse;whiteSpace=wrap;html=1;fontFamily=Times New Roman;fontSize=19;strokeWidth=4;" vertex="1" parent="55">
                    <mxGeometry x="260" width="40" height="40" as="geometry"/>
                </mxCell>
                <mxCell id="54" value="5" style="ellipse;whiteSpace=wrap;html=1;fontFamily=Times New Roman;fontSize=19;strokeWidth=4;" vertex="1" parent="55">
                    <mxGeometry x="60" y="150" width="40" height="40" as="geometry"/>
                </mxCell>
                <mxCell id="46" style="edgeStyle=none;html=1;endArrow=none;endFill=0;strokeWidth=4;" edge="1" parent="55" source="47" target="54">
                    <mxGeometry relative="1" as="geometry"/>
                </mxCell>
                <mxCell id="133" value="&lt;font style=&quot;font-size: 19px;&quot; face=&quot;Times New Roman&quot;&gt;(d)&lt;/font&gt;" style="rounded=0;whiteSpace=wrap;html=1;container=1;verticalAlign=bottom;strokeColor=none;fillColor=none;" vertex="1" parent="1">
                    <mxGeometry x="40" y="270" width="320" height="220" as="geometry">
                        <mxRectangle x="177" y="190" width="50" height="40" as="alternateBounds"/>
                    </mxGeometry>
                </mxCell>
                <mxCell id="111" value="" style="group" vertex="1" connectable="0" parent="133">
                    <mxGeometry x="10" width="300" height="190" as="geometry"/>
                </mxCell>
                <mxCell id="95" value="2" style="ellipse;whiteSpace=wrap;html=1;fontFamily=Times New Roman;fontSize=19;" vertex="1" parent="111">
                    <mxGeometry x="120" width="40" height="40" as="geometry"/>
                </mxCell>
                <mxCell id="98" value="" style="ellipse;whiteSpace=wrap;html=1;fontFamily=Times New Roman;fontSize=19;strokeWidth=4;" vertex="1" parent="111">
                    <mxGeometry x="60" y="50" width="40" height="40" as="geometry"/>
                </mxCell>
                <mxCell id="93" style="edgeStyle=none;html=1;fontFamily=Times New Roman;fontSize=19;endArrow=none;endFill=0;" edge="1" parent="111" source="95" target="98">
                    <mxGeometry relative="1" as="geometry"/>
                </mxCell>
                <mxCell id="101" value="4" style="ellipse;whiteSpace=wrap;html=1;fontFamily=Times New Roman;fontSize=19;" vertex="1" parent="111">
                    <mxGeometry x="180" y="50" width="40" height="40" as="geometry"/>
                </mxCell>
                <mxCell id="94" style="edgeStyle=none;html=1;fontFamily=Times New Roman;fontSize=19;endArrow=none;endFill=0;" edge="1" parent="111" source="95" target="101">
                    <mxGeometry relative="1" as="geometry"/>
                </mxCell>
                <mxCell id="103" value="3" style="ellipse;whiteSpace=wrap;html=1;fontFamily=Times New Roman;fontSize=19;strokeWidth=4;" vertex="1" parent="111">
                    <mxGeometry x="30" y="100" width="40" height="40" as="geometry"/>
                </mxCell>
                <mxCell id="96" style="edgeStyle=none;html=1;fontFamily=Times New Roman;fontSize=19;endArrow=none;endFill=0;strokeWidth=4;" edge="1" parent="111" source="98" target="103">
                    <mxGeometry relative="1" as="geometry"/>
                </mxCell>
                <mxCell id="104" value="7" style="ellipse;whiteSpace=wrap;html=1;fontFamily=Times New Roman;fontSize=19;" vertex="1" parent="111">
                    <mxGeometry x="90" y="100" width="40" height="40" as="geometry"/>
                </mxCell>
                <mxCell id="97" style="edgeStyle=none;html=1;fontFamily=Times New Roman;fontSize=19;endArrow=none;endFill=0;" edge="1" parent="111" source="98" target="104">
                    <mxGeometry relative="1" as="geometry"/>
                </mxCell>
                <mxCell id="105" value="8" style="ellipse;whiteSpace=wrap;html=1;fontFamily=Times New Roman;fontSize=19;" vertex="1" parent="111">
                    <mxGeometry x="150" y="100" width="40" height="40" as="geometry"/>
                </mxCell>
                <mxCell id="99" style="edgeStyle=none;html=1;fontFamily=Times New Roman;fontSize=19;endArrow=none;endFill=0;" edge="1" parent="111" source="101" target="105">
                    <mxGeometry relative="1" as="geometry"/>
                </mxCell>
                <mxCell id="106" value="9" style="ellipse;whiteSpace=wrap;html=1;fontFamily=Times New Roman;fontSize=19;" vertex="1" parent="111">
                    <mxGeometry x="210" y="100" width="40" height="40" as="geometry"/>
                </mxCell>
                <mxCell id="100" style="edgeStyle=none;html=1;fontFamily=Times New Roman;fontSize=19;endArrow=none;endFill=0;" edge="1" parent="111" source="101" target="106">
                    <mxGeometry relative="1" as="geometry"/>
                </mxCell>
                <mxCell id="107" style="edgeStyle=none;html=1;fontFamily=Times New Roman;fontSize=19;endArrow=none;endFill=0;" edge="1" parent="111" source="103" target="108">
                    <mxGeometry relative="1" as="geometry">
                        <mxPoint x="39.84029960111843" y="139.99731806766874" as="sourcePoint"/>
                    </mxGeometry>
                </mxCell>
                <mxCell id="108" value="6" style="ellipse;whiteSpace=wrap;html=1;fontFamily=Times New Roman;fontSize=19;" vertex="1" parent="111">
                    <mxGeometry y="150" width="40" height="40" as="geometry"/>
                </mxCell>
                <mxCell id="109" value="1" style="ellipse;whiteSpace=wrap;html=1;fontFamily=Times New Roman;fontSize=19;strokeWidth=4;" vertex="1" parent="111">
                    <mxGeometry x="260" width="40" height="40" as="geometry"/>
                </mxCell>
                <mxCell id="110" value="5" style="ellipse;whiteSpace=wrap;html=1;fontFamily=Times New Roman;fontSize=19;strokeWidth=1;" vertex="1" parent="111">
                    <mxGeometry x="60" y="150" width="40" height="40" as="geometry"/>
                </mxCell>
                <mxCell id="102" style="edgeStyle=none;html=1;endArrow=none;endFill=0;strokeWidth=1;" edge="1" parent="111" source="103" target="110">
                    <mxGeometry relative="1" as="geometry"/>
                </mxCell>
                <mxCell id="134" value="&lt;font style=&quot;font-size: 19px;&quot; face=&quot;Times New Roman&quot;&gt;(e)&lt;/font&gt;" style="rounded=0;whiteSpace=wrap;html=1;container=1;verticalAlign=bottom;strokeColor=none;fillColor=none;" vertex="1" parent="1">
                    <mxGeometry x="360" y="270" width="320" height="220" as="geometry">
                        <mxRectangle x="177" y="190" width="50" height="40" as="alternateBounds"/>
                    </mxGeometry>
                </mxCell>
                <mxCell id="129" value="" style="group" vertex="1" connectable="0" parent="134">
                    <mxGeometry x="35" width="250" height="190" as="geometry"/>
                </mxCell>
                <mxCell id="114" value="1" style="ellipse;whiteSpace=wrap;html=1;fontFamily=Times New Roman;fontSize=19;strokeWidth=4;" vertex="1" parent="129">
                    <mxGeometry x="120" width="40" height="40" as="geometry"/>
                </mxCell>
                <mxCell id="117" value="2" style="ellipse;whiteSpace=wrap;html=1;fontFamily=Times New Roman;fontSize=19;strokeWidth=4;" vertex="1" parent="129">
                    <mxGeometry x="60" y="50" width="40" height="40" as="geometry"/>
                </mxCell>
                <mxCell id="112" style="edgeStyle=none;html=1;fontFamily=Times New Roman;fontSize=19;endArrow=none;endFill=0;strokeWidth=4;" edge="1" parent="129" source="114" target="117">
                    <mxGeometry relative="1" as="geometry"/>
                </mxCell>
                <mxCell id="120" value="4" style="ellipse;whiteSpace=wrap;html=1;fontFamily=Times New Roman;fontSize=19;" vertex="1" parent="129">
                    <mxGeometry x="180" y="50" width="40" height="40" as="geometry"/>
                </mxCell>
                <mxCell id="113" style="edgeStyle=none;html=1;fontFamily=Times New Roman;fontSize=19;endArrow=none;endFill=0;" edge="1" parent="129" source="114" target="120">
                    <mxGeometry relative="1" as="geometry"/>
                </mxCell>
                <mxCell id="122" value="3" style="ellipse;whiteSpace=wrap;html=1;fontFamily=Times New Roman;fontSize=19;strokeWidth=1;" vertex="1" parent="129">
                    <mxGeometry x="30" y="100" width="40" height="40" as="geometry"/>
                </mxCell>
                <mxCell id="115" style="edgeStyle=none;html=1;fontFamily=Times New Roman;fontSize=19;endArrow=none;endFill=0;strokeWidth=1;" edge="1" parent="129" source="117" target="122">
                    <mxGeometry relative="1" as="geometry"/>
                </mxCell>
                <mxCell id="123" value="7" style="ellipse;whiteSpace=wrap;html=1;fontFamily=Times New Roman;fontSize=19;" vertex="1" parent="129">
                    <mxGeometry x="90" y="100" width="40" height="40" as="geometry"/>
                </mxCell>
                <mxCell id="116" style="edgeStyle=none;html=1;fontFamily=Times New Roman;fontSize=19;endArrow=none;endFill=0;" edge="1" parent="129" source="117" target="123">
                    <mxGeometry relative="1" as="geometry"/>
                </mxCell>
                <mxCell id="124" value="8" style="ellipse;whiteSpace=wrap;html=1;fontFamily=Times New Roman;fontSize=19;" vertex="1" parent="129">
                    <mxGeometry x="150" y="100" width="40" height="40" as="geometry"/>
                </mxCell>
                <mxCell id="118" style="edgeStyle=none;html=1;fontFamily=Times New Roman;fontSize=19;endArrow=none;endFill=0;" edge="1" parent="129" source="120" target="124">
                    <mxGeometry relative="1" as="geometry"/>
                </mxCell>
                <mxCell id="125" value="9" style="ellipse;whiteSpace=wrap;html=1;fontFamily=Times New Roman;fontSize=19;" vertex="1" parent="129">
                    <mxGeometry x="210" y="100" width="40" height="40" as="geometry"/>
                </mxCell>
                <mxCell id="119" style="edgeStyle=none;html=1;fontFamily=Times New Roman;fontSize=19;endArrow=none;endFill=0;" edge="1" parent="129" source="120" target="125">
                    <mxGeometry relative="1" as="geometry"/>
                </mxCell>
                <mxCell id="126" style="edgeStyle=none;html=1;fontFamily=Times New Roman;fontSize=19;endArrow=none;endFill=0;" edge="1" parent="129" source="122" target="127">
                    <mxGeometry relative="1" as="geometry">
                        <mxPoint x="39.84029960111843" y="139.99731806766874" as="sourcePoint"/>
                    </mxGeometry>
                </mxCell>
                <mxCell id="127" value="6" style="ellipse;whiteSpace=wrap;html=1;fontFamily=Times New Roman;fontSize=19;" vertex="1" parent="129">
                    <mxGeometry y="150" width="40" height="40" as="geometry"/>
                </mxCell>
                <mxCell id="128" value="5" style="ellipse;whiteSpace=wrap;html=1;fontFamily=Times New Roman;fontSize=19;strokeWidth=1;" vertex="1" parent="129">
                    <mxGeometry x="60" y="150" width="40" height="40" as="geometry"/>
                </mxCell>
                <mxCell id="121" style="edgeStyle=none;html=1;endArrow=none;endFill=0;strokeWidth=1;" edge="1" parent="129" source="122" target="128">
                    <mxGeometry relative="1" as="geometry"/>
                </mxCell>
                <mxCell id="140" value="" style="line;strokeWidth=2;html=1;strokeColor=default;fillColor=none;" vertex="1" parent="1">
                    <mxGeometry x="50" y="260" width="950" height="10" as="geometry"/>
                </mxCell>
                <mxCell id="141" value="" style="line;strokeWidth=2;direction=south;html=1;strokeColor=default;fillColor=none;" vertex="1" parent="1">
                    <mxGeometry x="350" y="30" width="20" height="450" as="geometry"/>
                </mxCell>
                <mxCell id="142" value="" style="line;strokeWidth=2;direction=south;html=1;strokeColor=default;fillColor=none;" vertex="1" parent="1">
                    <mxGeometry x="670" y="40" width="20" height="450" as="geometry"/>
                </mxCell>
                <mxCell id="143" value="&lt;font style=&quot;font-size: 19px;&quot; face=&quot;Times New Roman&quot;&gt;(b)&lt;/font&gt;" style="rounded=0;whiteSpace=wrap;html=1;container=1;verticalAlign=bottom;strokeColor=none;fillColor=none;" vertex="1" parent="1">
                    <mxGeometry x="360" y="40" width="320" height="220" as="geometry">
                        <mxRectangle x="177" y="190" width="50" height="40" as="alternateBounds"/>
                    </mxGeometry>
                </mxCell>
                <mxCell id="36" value="" style="group" vertex="1" connectable="0" parent="143">
                    <mxGeometry x="10" width="300" height="190" as="geometry"/>
                </mxCell>
                <mxCell id="20" value="2" style="ellipse;whiteSpace=wrap;html=1;fontFamily=Times New Roman;fontSize=19;" vertex="1" parent="36">
                    <mxGeometry x="120" width="40" height="40" as="geometry"/>
                </mxCell>
                <mxCell id="23" value="3" style="ellipse;whiteSpace=wrap;html=1;fontFamily=Times New Roman;fontSize=19;" vertex="1" parent="36">
                    <mxGeometry x="60" y="50" width="40" height="40" as="geometry"/>
                </mxCell>
                <mxCell id="18" style="edgeStyle=none;html=1;fontFamily=Times New Roman;fontSize=19;endArrow=none;endFill=0;" edge="1" parent="36" source="20" target="23">
                    <mxGeometry relative="1" as="geometry"/>
                </mxCell>
                <mxCell id="26" value="4" style="ellipse;whiteSpace=wrap;html=1;fontFamily=Times New Roman;fontSize=19;" vertex="1" parent="36">
                    <mxGeometry x="180" y="50" width="40" height="40" as="geometry"/>
                </mxCell>
                <mxCell id="19" style="edgeStyle=none;html=1;fontFamily=Times New Roman;fontSize=19;endArrow=none;endFill=0;" edge="1" parent="36" source="20" target="26">
                    <mxGeometry relative="1" as="geometry"/>
                </mxCell>
                <mxCell id="28" value="5" style="ellipse;whiteSpace=wrap;html=1;fontFamily=Times New Roman;fontSize=19;" vertex="1" parent="36">
                    <mxGeometry x="30" y="100" width="40" height="40" as="geometry"/>
                </mxCell>
                <mxCell id="21" style="edgeStyle=none;html=1;fontFamily=Times New Roman;fontSize=19;endArrow=none;endFill=0;" edge="1" parent="36" source="23" target="28">
                    <mxGeometry relative="1" as="geometry"/>
                </mxCell>
                <mxCell id="29" value="7" style="ellipse;whiteSpace=wrap;html=1;fontFamily=Times New Roman;fontSize=19;" vertex="1" parent="36">
                    <mxGeometry x="90" y="100" width="40" height="40" as="geometry"/>
                </mxCell>
                <mxCell id="22" style="edgeStyle=none;html=1;fontFamily=Times New Roman;fontSize=19;endArrow=none;endFill=0;" edge="1" parent="36" source="23" target="29">
                    <mxGeometry relative="1" as="geometry"/>
                </mxCell>
                <mxCell id="30" value="8" style="ellipse;whiteSpace=wrap;html=1;fontFamily=Times New Roman;fontSize=19;" vertex="1" parent="36">
                    <mxGeometry x="150" y="100" width="40" height="40" as="geometry"/>
                </mxCell>
                <mxCell id="24" style="edgeStyle=none;html=1;fontFamily=Times New Roman;fontSize=19;endArrow=none;endFill=0;" edge="1" parent="36" source="26" target="30">
                    <mxGeometry relative="1" as="geometry"/>
                </mxCell>
                <mxCell id="31" value="9" style="ellipse;whiteSpace=wrap;html=1;fontFamily=Times New Roman;fontSize=19;" vertex="1" parent="36">
                    <mxGeometry x="210" y="100" width="40" height="40" as="geometry"/>
                </mxCell>
                <mxCell id="25" style="edgeStyle=none;html=1;fontFamily=Times New Roman;fontSize=19;endArrow=none;endFill=0;" edge="1" parent="36" source="26" target="31">
                    <mxGeometry relative="1" as="geometry"/>
                </mxCell>
                <mxCell id="32" style="edgeStyle=none;html=1;fontFamily=Times New Roman;fontSize=19;endArrow=none;endFill=0;" edge="1" parent="36" source="28" target="33">
                    <mxGeometry relative="1" as="geometry">
                        <mxPoint x="39.84029960111843" y="139.99731806766874" as="sourcePoint"/>
                    </mxGeometry>
                </mxCell>
                <mxCell id="33" value="6" style="ellipse;whiteSpace=wrap;html=1;fontFamily=Times New Roman;fontSize=19;" vertex="1" parent="36">
                    <mxGeometry y="150" width="40" height="40" as="geometry"/>
                </mxCell>
                <mxCell id="34" value="1" style="ellipse;whiteSpace=wrap;html=1;fontFamily=Times New Roman;fontSize=19;strokeWidth=4;" vertex="1" parent="36">
                    <mxGeometry x="260" width="40" height="40" as="geometry"/>
                </mxCell>
                <mxCell id="35" value="" style="ellipse;whiteSpace=wrap;html=1;fontFamily=Times New Roman;fontSize=19;strokeWidth=4;" vertex="1" parent="36">
                    <mxGeometry x="60" y="150" width="40" height="40" as="geometry"/>
                </mxCell>
                <mxCell id="27" style="edgeStyle=none;html=1;endArrow=none;endFill=0;strokeWidth=4;" edge="1" parent="36" source="28" target="35">
                    <mxGeometry relative="1" as="geometry"/>
                </mxCell>
            </root>
        </mxGraphModel>
    </diagram>
</mxfile>